HIERARCHY
ROOT Hips
{
	OFFSET -3.958830 18.904000 13.208200
	CHANNELS 6 Xposition Yposition Zposition Zrotation Yrotation Xrotation 
	JOINT LHipJoint
	{
		OFFSET 0.000000 0.000000 0.000000
		CHANNELS 3 Zrotation Yrotation Xrotation
		JOINT LeftUpLeg
		{
			OFFSET 1.800000 -1.400000 0.085000
			CHANNELS 3 Zrotation Yrotation Xrotation
			JOINT LeftLeg
			{
				OFFSET 2.215000 -6.000000 0.000000
				CHANNELS 3 Zrotation Yrotation Xrotation
				JOINT LeftFoot
				{
					OFFSET 2.500000 -6.900000 0.000000
					CHANNELS 3 Zrotation Yrotation Xrotation
					JOINT LeftToeBase
					{
						OFFSET 0.200000 -0.500000 1.950000
						CHANNELS 3 Zrotation Yrotation Xrotation
						End Site
						{
							OFFSET 0.000000 0.000000 0.000000
						}
					}
				}
			}
		}
	}
	JOINT RHipJoint
	{
		OFFSET 0.000000 0.000000 0.000000
		CHANNELS 3 Zrotation Yrotation Xrotation
		JOINT RightUpLeg
		{
			OFFSET -1.800000 -1.400000 0.085000
			CHANNELS 3 Zrotation Yrotation Xrotation
			JOINT RightLeg
			{
				OFFSET -2.215000 -6.000000 0.000000
				CHANNELS 3 Zrotation Yrotation Xrotation
				JOINT RightFoot
				{
					OFFSET -2.500000 -6.900000 0.000000
					CHANNELS 3 Zrotation Yrotation Xrotation
					JOINT RightToeBase
					{
						OFFSET -0.200000 -0.500000 1.950000
						CHANNELS 3 Zrotation Yrotation Xrotation
						End Site
						{
							OFFSET 0.000000 0.000000 0.000000
						}
					}
				}
			}
		}
	}
	JOINT LowerBack
	{
		OFFSET 0.000000 0.000000 0.000000
		CHANNELS 3 Zrotation Yrotation Xrotation
		JOINT Spine
		{
			OFFSET -0.087000 1.940000 -0.288900
			CHANNELS 3 Zrotation Yrotation Xrotation
			JOINT Spine1
			{
				OFFSET 0.000000 1.950000 0.060000
				CHANNELS 3 Zrotation Yrotation Xrotation
				JOINT Neck
				{
					OFFSET 0.000000 0.000000 0.000000
					CHANNELS 3 Zrotation Yrotation Xrotation
					JOINT Neck1
					{
						OFFSET 0.000000 1.600000 0.340000
						CHANNELS 3 Zrotation Yrotation Xrotation
						JOINT Head
						{
							OFFSET 0.000000 1.667000 -0.240000
							CHANNELS 3 Zrotation Yrotation Xrotation
							End Site
							{
								OFFSET 0.000000 0.000000 0.000000
							}
						}
					}
				}
				JOINT LeftShoulder
				{
					OFFSET 0.000000 0.000000 0.000000
					CHANNELS 3 Zrotation Yrotation Xrotation
					JOINT LeftArm
					{
						OFFSET 2.700000 1.550000 -0.730000
						CHANNELS 3 Zrotation Yrotation Xrotation
						JOINT LeftForeArm
						{
							OFFSET 5.450000 0.000000 0.000000
							CHANNELS 3 Zrotation Yrotation Xrotation
							JOINT LeftHand
							{
								OFFSET 3.450000 0.000000 0.000000
								CHANNELS 3 Zrotation Yrotation Xrotation
								JOINT LeftHandIndex1
								{
									OFFSET 0.750000 0.000000 0.000000
									CHANNELS 3 Zrotation Yrotation Xrotation
									End Site
									{
										OFFSET 0.000000 0.000000 0.000000
									}
								}
							}
						}
					}
				}
				JOINT RightShoulder
				{
					OFFSET 0.000000 0.000000 0.000000
					CHANNELS 3 Zrotation Yrotation Xrotation
					JOINT RightArm
					{
						OFFSET -2.700000 1.550000 -0.730000
						CHANNELS 3 Zrotation Yrotation Xrotation
						JOINT RightForeArm
						{
							OFFSET -5.450000 0.000000 0.000000
							CHANNELS 3 Zrotation Yrotation Xrotation
							JOINT RightHand
							{
								OFFSET -3.450000 0.000000 0.000000
								CHANNELS 3 Zrotation Yrotation Xrotation
								JOINT RightHandIndex1
								{
									OFFSET -0.750000 0.000000 0.000000
									CHANNELS 3 Zrotation Yrotation Xrotation
									End Site
									{
										OFFSET 0.000000 0.000000 0.000000
									}
								}
							}
						}
					}
				}
			}
		}
	}
}
MOTION
Frames: 12
Frame Time: 0.016667
-0.241930 16.972360 -0.668990 -3.580191 -33.413965 2.626751 -14.850039 14.423348 2.717390 9.079483 -1.418101 -11.315701 -2.707571 6.319792 22.034362 -0.144340 4.578561 2.950493 0.427560 0.086550 0.436690 18.310484 -10.949196 2.881381 -5.990398 1.385241 -16.647242 10.381952 -6.880863 18.086356 -0.374226 -3.307178 3.300331 -0.109000 -0.056840 0.239160 -3.685003 -3.177092 -7.269192 13.066744 -4.122938 9.332413 -7.059810 -2.311445 9.254343 4.215252 -5.344052 -17.732925 -19.745618 11.711993 53.388198 -2.783400 6.001980 -4.763760 -3.905549 -15.232396 8.945287 -52.196247 -8.443268 -4.815498 -23.547452 -37.674132 3.885943 -3.320692 3.085321 0.664150 -0.107510 0.261840 0.146140 -3.821374 18.967093 11.841533 58.967339 1.496692 -12.589244 37.825671 39.592063 7.541107 2.136859 -1.612325 -0.000440 0.068800 -0.126220 -0.207920 
-0.241490 16.970190 -0.668090 -3.594542 -33.385590 2.675370 -14.843934 14.453670 2.738618 9.085598 -1.436588 -11.388189 -2.715261 6.320420 22.057150 -0.131969 4.572439 2.953064 0.421570 0.079170 0.429340 18.306537 -10.942732 2.891836 -5.975587 1.438683 -16.854679 10.347753 -6.914651 18.384720 -0.373060 -3.307546 3.300729 -0.119360 -0.059160 0.238430 -3.676041 -3.238948 -7.312223 13.248650 -4.240649 9.843539 -7.186816 -2.302167 8.901769 4.335947 -5.507676 -17.980376 -20.166540 11.776270 52.863176 -2.666140 5.844360 -4.802270 -4.757182 -15.608164 9.051119 -51.010657 -7.664085 -5.221969 -24.304051 -38.539252 4.265988 -3.306993 3.094537 0.664770 -0.114100 0.262990 0.146520 -3.158640 19.535080 12.166270 57.656841 0.578370 -12.871234 39.081668 40.458529 8.135569 2.143742 -1.610475 0.004070 0.063680 -0.125910 -0.203580 
-0.242160 16.968220 -0.666940 -3.583554 -33.347638 2.720519 -14.839379 14.482856 2.758916 9.074343 -1.457250 -11.469897 -2.713531 6.319683 22.093891 -0.119506 4.567600 2.956453 0.413650 0.070180 0.421040 18.301650 -10.936175 2.901385 -5.976156 1.488792 -17.059934 10.310826 -6.944479 18.664423 -0.370173 -3.309276 3.300811 -0.129930 -0.058970 0.237470 -3.663295 -3.299511 -7.352941 13.375563 -4.361212 10.346440 -7.294353 -2.302820 8.538537 4.443421 -5.661859 -18.176771 -20.489487 11.790538 52.213712 -2.583890 5.727540 -4.815360 -5.597110 -15.911312 9.127591 -49.860721 -6.895042 -5.591693 -25.123693 -39.357253 4.678219 -3.296697 3.105305 0.662790 -0.118190 0.261610 0.146450 -2.483316 20.019273 12.447355 56.407911 -0.286177 -13.093754 40.239723 41.207472 8.695433 2.151134 -1.609076 0.007580 0.058880 -0.124690 -0.199080 
-0.243940 16.966130 -0.665090 -3.549348 -33.293740 2.769002 -14.836203 14.507679 2.778119 9.060469 -1.477135 -11.550632 -2.737648 6.324616 22.107443 -0.109002 4.564857 2.959901 0.403370 0.059260 0.410230 18.296693 -10.928248 2.909798 -6.000132 1.534914 -17.259358 10.301497 -6.978067 18.915988 -0.365514 -3.315287 3.299928 -0.139510 -0.056230 0.235690 -3.650075 -3.355953 -7.389568 13.466195 -4.487387 10.812544 -7.395065 -2.318537 8.175716 4.533735 -5.814174 -18.318283 -20.736521 11.761091 51.454299 -2.535110 5.639200 -4.802390 -6.403164 -16.135815 9.174948 -48.759324 -6.146068 -5.915411 -26.020667 -40.113483 5.124389 -3.290196 3.116989 0.658940 -0.119570 0.257260 0.146200 -1.812566 20.414317 12.677031 55.241765 -1.064583 -13.248980 41.247430 41.803167 9.189772 2.157708 -1.607506 0.008670 0.055000 -0.121790 -0.194980 
-0.247270 16.963450 -0.662580 -3.514417 -33.227222 2.853188 -14.834542 14.526507 2.795020 9.072459 -1.500497 -11.655008 -2.791546 6.341741 22.122458 -0.098687 4.570565 2.962948 0.390580 0.043780 0.397070 18.292252 -10.917969 2.917557 -6.014143 1.586815 -17.471869 10.304624 -7.012503 19.155881 -0.358072 -3.326562 3.298571 -0.149690 -0.047770 0.235530 -3.637908 -3.405691 -7.420614 13.534483 -4.606908 11.204135 -7.472139 -2.344807 7.828448 4.598310 -5.962072 -18.395326 -20.875044 11.667615 50.528665 -2.512260 5.573730 -4.636900 -7.161468 -16.278159 9.190088 -47.723068 -5.446866 -6.178758 -26.974329 -40.792003 5.595862 -3.289883 3.131471 0.651620 -0.115520 0.247920 0.147180 -1.145996 20.708772 12.856809 54.140147 -1.777129 -13.344397 42.156180 42.301289 9.644777 2.162777 -1.609361 0.007680 0.050550 -0.117650 -0.190750 
-0.251880 16.960200 -0.659750 -3.458866 -33.153233 2.959135 -14.835374 14.538724 2.810820 9.101723 -1.527634 -11.789001 -2.893598 6.376213 22.135885 -0.087874 4.582930 2.965158 0.376880 0.027340 0.382290 18.287494 -10.904520 2.923671 -6.041690 1.641673 -17.703179 10.326019 -7.047387 19.381077 -0.348456 -3.341626 3.296670 -0.158730 -0.035210 0.235480 -3.624010 -3.450553 -7.446439 13.544980 -4.717244 11.534340 -7.499787 -2.384014 7.497905 4.625780 -6.118118 -18.399571 -20.937069 11.536651 49.427869 -2.475160 5.527610 -4.404430 -7.860944 -16.327029 9.164965 -46.761461 -4.822429 -6.372646 -27.955371 -41.337752 6.072347 -3.294322 3.148087 0.640500 -0.107830 0.234910 0.149490 -0.468661 20.897616 12.979077 53.058627 -2.411717 -13.370343 42.995039 42.692875 10.063088 2.167720 -1.613740 0.005400 0.046580 -0.113330 -0.185760 
-0.257590 16.956430 -0.656300 -3.385361 -33.051176 3.086425 -14.837345 14.544735 2.823939 9.124968 -1.561684 -11.957379 -2.992639 6.411931 22.173071 -0.077847 4.600008 2.968181 0.360360 0.007720 0.364820 18.283454 -10.890835 2.928770 -6.077451 1.692645 -17.933432 10.359592 -7.077720 19.558903 -0.336112 -3.358727 3.295472 -0.167630 -0.017080 0.235780 -3.611858 -3.485707 -7.466288 13.521551 -4.819469 11.783728 -7.506946 -2.435933 7.189522 4.624955 -6.260723 -18.335534 -20.877050 11.340243 48.210655 -2.473600 5.502890 -4.059320 -8.531685 -16.307998 9.107202 -45.834760 -4.248712 -6.510709 -28.981259 -41.781090 6.563881 -3.304841 3.164829 0.625970 -0.095240 0.217790 0.153070 0.224911 20.990819 13.047819 52.042785 -2.963870 -13.341042 43.701069 42.971850 10.416324 2.171835 -1.619429 0.000660 0.043930 -0.107820 -0.180130 
-0.264080 16.952400 -0.652490 -3.311661 -32.932747 3.240662 -14.839530 14.544021 2.834092 9.150870 -1.602599 -12.158145 -3.088583 6.450616 22.240902 -0.070256 4.622763 2.970559 0.341550 -0.014590 0.345050 18.281148 -10.877494 2.933053 -6.102939 1.744968 -18.172546 10.389649 -7.103218 19.715956 -0.321073 -3.377704 3.294424 -0.175930 0.005710 0.235890 -3.604869 -3.508847 -7.479092 13.495107 -4.917034 11.956417 -7.510337 -2.498464 6.901897 4.592886 -6.391298 -18.209162 -20.716822 11.107173 46.909349 -2.469680 5.491230 -3.636930 -9.179347 -16.233417 9.021070 -44.926432 -3.722509 -6.595780 -30.056513 -42.126483 7.068983 -3.320899 3.181309 0.609250 -0.078580 0.196490 0.156670 0.944255 20.997462 13.063700 51.078927 -3.427712 -13.257326 44.252399 43.131435 10.692220 2.174752 -1.625371 -0.006770 0.042520 -0.100420 -0.174670 
-0.271010 16.947650 -0.648010 -3.228637 -32.824446 3.436183 -14.842843 14.533528 2.841632 9.165489 -1.648630 -12.394329 -3.207096 6.496894 22.312584 -0.063922 4.651097 2.973799 0.319550 -0.040210 0.321240 18.280342 -10.862723 2.936631 -6.149101 1.804282 -18.454380 10.450225 -7.136475 19.870471 -0.303045 -3.403367 3.292988 -0.183740 0.036050 0.236070 -3.602444 -3.517996 -7.483626 13.453666 -4.991932 12.026287 -7.492003 -2.560746 6.645206 4.520936 -6.517600 -18.007692 -20.458060 10.842816 45.461257 -2.449390 5.489490 -3.106740 -9.787843 -16.084365 8.898959 -44.091071 -3.277553 -6.621463 -31.127210 -42.367346 7.563631 -3.344373 3.197110 0.588550 -0.056110 0.169960 0.162100 1.691955 20.902574 13.019470 50.172563 -3.799403 -13.123485 44.629508 43.193675 10.889854 2.175892 -1.631813 -0.017250 0.043850 -0.090990 -0.168050 
-0.278640 16.943090 -0.642990 -3.145443 -32.699826 3.653238 -14.846459 14.515415 2.846630 9.190575 -1.697851 -12.648931 -3.340413 6.548688 22.387653 -0.056163 4.682754 2.976498 0.295910 -0.066410 0.294300 18.281081 -10.848622 2.939113 -6.197785 1.859995 -18.730747 10.521513 -7.167204 19.991681 -0.283532 -3.432366 3.290052 -0.191040 0.070280 0.238060 -3.604604 -3.513535 -7.481718 13.400940 -5.055335 12.005355 -7.464175 -2.630931 6.421414 4.418079 -6.622086 -17.754754 -20.105708 10.549176 43.981838 -2.429360 5.486180 -2.460790 -10.408150 -15.908619 8.758469 -43.270514 -2.877947 -6.606517 -32.178109 -42.504640 8.040337 -3.372690 3.215691 0.563120 -0.029760 0.140940 0.168610 2.500079 20.745154 12.931696 49.319672 -4.094260 -12.952448 44.800554 43.157533 10.990549 2.177510 -1.639955 -0.027160 0.044260 -0.080630 -0.159310 
-0.286570 16.938850 -0.637310 -3.055152 -32.561519 3.895755 -14.850978 14.490023 2.848732 9.204094 -1.749356 -12.922480 -3.470566 6.597534 22.454435 -0.048167 4.711406 2.980838 0.271020 -0.091620 0.264950 18.282883 -10.834636 2.940813 -6.256567 1.910027 -19.004666 10.616295 -7.194445 20.060753 -0.261253 -3.462825 3.288208 -0.196940 0.107430 0.238960 -3.609579 -3.496637 -7.473109 13.323619 -5.102357 11.882412 -7.410627 -2.709046 6.236775 4.285234 -6.700294 -17.451972 -19.662789 10.236143 42.485623 -2.414950 5.492300 -1.723710 -11.018470 -15.701878 8.600518 -42.506928 -2.544944 -6.550121 -33.156990 -42.531231 8.475869 -3.404915 3.234312 0.532810 0.000140 0.108680 0.175460 3.346528 20.519519 12.798803 48.534815 -4.306099 -12.748362 44.765952 43.037235 10.997106 2.179146 -1.649073 -0.037270 0.044890 -0.070230 -0.149190 
-0.294620 16.934800 -0.631030 -2.976832 -32.419240 4.171009 -14.856713 14.457545 2.848522 9.233664 -1.800421 -13.207048 -3.622316 6.651318 22.493683 -0.041555 4.742002 2.985926 0.244600 -0.118500 0.234170 18.285528 -10.819627 2.941608 -6.304836 1.960234 -19.274130 10.719756 -7.215660 20.088086 -0.236903 -3.493446 3.287650 -0.202370 0.148350 0.239610 -3.616474 -3.469023 -7.458456 13.238223 -5.124022 11.658576 -7.315736 -2.784537 6.097550 4.128573 -6.746100 -17.108534 -19.141908 9.918832 41.015085 -2.418220 5.512290 -0.899760 -11.609205 -15.472033 8.427693 -41.841740 -2.301882 -6.452345 -34.008643 -42.452947 8.842380 -3.441559 3.251419 0.500060 0.033540 0.073230 0.182810 4.211559 20.231487 12.628353 47.835002 -4.448879 -12.530442 44.481083 42.860753 10.906327 2.179029 -1.658038 -0.049100 0.046900 -0.058720 -0.138990 
